<svg width="200" height="60" viewBox="0 0 200 60" fill="none" xmlns="http://www.w3.org/2000/svg">
  <defs>
    <linearGradient id="skycare-gradient" x1="0%" y1="0%" x2="100%" y2="100%">
      <stop offset="0%" style="stop-color:#38BDF8;stop-opacity:1" />
      <stop offset="100%" style="stop-color:#10B981;stop-opacity:1" />
    </linearGradient>
  </defs>
  
  <g transform="translate(10, 13)">
    <path d="M12 22L5 15C3 13 3 10 5 8C7 6 10 6 12 8C14 6 17 6 19 8C21 10 21 13 19 15L12 22Z" 
          fill="url(#skycare-gradient)" opacity="0.15"/>
    <path d="M12 22L5 15C3 13 3 10 5 8C7 6 10 6 12 8C14 6 17 6 19 8C21 10 21 13 19 15L12 22Z" 
          stroke="url(#skycare-gradient)" 
          stroke-width="1.8" 
          stroke-linecap="round"
          stroke-linejoin="round"
          fill="none"/>
    <circle cx="12" cy="13" r="2" fill="url(#skycare-gradient)"/>
    <path d="M9 18C9 16 10.5 15 12 15C13.5 15 15 16 15 18" 
          stroke="url(#skycare-gradient)" 
          stroke-width="1.5" 
          stroke-linecap="round"
          fill="none"/>
  </g>
  
  <text x="45" y="38" font-family="Inter, system-ui, sans-serif" font-size="26" font-weight="700" fill="#0F172A">
    Sky<tspan fill="url(#skycare-gradient)">Care</tspan>
  </text>
</svg>
