<svg width="200" height="60" viewBox="0 0 200 60" fill="none" xmlns="http://www.w3.org/2000/svg">
  <defs>
    <linearGradient id="skycloud-gradient" x1="0%" y1="0%" x2="100%" y2="100%">
      <stop offset="0%" style="stop-color:#0EA5E9;stop-opacity:1" />
      <stop offset="100%" style="stop-color:#6366F1;stop-opacity:1" />
    </linearGradient>
  </defs>
  
  <g transform="translate(8, 12)">
    <path d="M17 15C17 15 20 15 20 12C20 9 17 9 17 9C17 6 14 4 11 4C8 4 5 6 5 9C5 9 2 9 2 12C2 15 5 15 5 15" 
          fill="url(#skycloud-gradient)" opacity="0.15"/>
    <path d="M17 15C17 15 20 15 20 12C20 9 17 9 17 9C17 6 14 4 11 4C8 4 5 6 5 9C5 9 2 9 2 12C2 15 5 15 5 15" 
          stroke="url(#skycloud-gradient)" 
          stroke-width="1.8" 
          stroke-linecap="round"
          fill="none"/>
    <circle cx="5" cy="22" r="2" fill="url(#skycloud-gradient)"/>
    <circle cx="11" cy="19" r="2" fill="url(#skycloud-gradient)"/>
    <circle cx="17" cy="22" r="2" fill="url(#skycloud-gradient)"/>
    <line x1="5" y1="22" x2="11" y2="19" stroke="url(#skycloud-gradient)" stroke-width="1.5"/>
    <line x1="11" y1="19" x2="17" y2="22" stroke="url(#skycloud-gradient)" stroke-width="1.5"/>
    <line x1="11" y1="15" x2="11" y2="17" stroke="url(#skycloud-gradient)" stroke-width="1.5"/>
  </g>
  
  <text x="45" y="38" font-family="Inter, system-ui, sans-serif" font-size="26" font-weight="700" fill="#0F172A">
    Sky<tspan fill="url(#skycloud-gradient)">Cloud</tspan>
  </text>
</svg>
